<?xml version="1.0" ?><svg height="42" id="svg3236" version="1.1" width="42" xmlns="http://www.w3.org/2000/svg" xmlns:cc="http://creativecommons.org/ns#" xmlns:dc="http://purl.org/dc/elements/1.1/" xmlns:inkscape="http://www.inkscape.org/namespaces/inkscape" xmlns:rdf="http://www.w3.org/1999/02/22-rdf-syntax-ns#" xmlns:sodipodi="http://sodipodi.sourceforge.net/DTD/sodipodi-0.dtd" xmlns:svg="http://www.w3.org/2000/svg"><defs id="defs3238"/><g id="layer1" transform="translate(0,-1010.3622)"><g id="g3266" transform="translate(-492.08524,657.34812)"><g id="g3795" transform="translate(43.79004,-45.758815)"><g id="g3895"><g id="g3927" transform="translate(-114.00683,33.410715)"><g id="g3602" transform="translate(137.66219,-79.214283)"><g id="g3619" transform="translate(-32.89251,-0.831207)"><g id="g3611"/><path d="M 22.96875 0.75 C 21.035753 0.75 19.46875 2.317006 19.46875 4.25 C 19.46875 6.182994 21.035753 7.75 22.96875 7.75 C 24.901747 7.75 26.46875 6.182994 26.46875 4.25 C 26.46875 2.317006 24.901747 0.75 22.96875 0.75 z M 22.96875 8.75 C 21.316852 8.75 19.907685 9.6420208 19.125 10.96875 L 16.375 13.71875 L 11.875 10.1875 A 1.50015 1.50015 0 0 0 10.75 9.875 A 1.50015 1.50015 0 0 0 10.03125 12.5625 L 15.59375 16.9375 A 1.50015 1.50015 0 0 0 17.59375 16.8125 L 18.71875 15.6875 L 19.46875 24.75 L 19.46875 30.75 L 19.46875 39.75 A 1.50015 1.50015 0 1 0 22.46875 39.75 L 22.46875 30.75 L 22.46875 24.75 L 23.46875 24.75 L 23.46875 30.75 A 1.50015 1.50015 0 0 0 24.8125 32.25 L 30.875 32.90625 A 1.50015 1.50015 0 1 0 31.21875 29.9375 L 26.46875 29.40625 L 26.46875 24.75 L 27.21875 15.625 L 27.46875 15.875 L 27.4375 22.96875 A 1.50015 1.50015 0 1 0 30.4375 23 L 30.46875 15.25 A 1.50015 1.50015 0 0 0 30.0625 14.1875 L 26.78125 10.875 C 25.986659 9.600654 24.581131 8.75 22.96875 8.75 z " id="path3123" style="fill:#1a1a1a;fill-rule:evenodd;stroke:none" transform="translate(457.53235,445.40767)"/></g></g></g></g></g></g></g></svg>