<?xml version="1.0" encoding="utf-8"?>
<!-- Generator: Adobe Illustrator 16.0.0, SVG Export Plug-In . SVG Version: 6.00 Build 0)  -->
<!DOCTYPE svg PUBLIC "-//W3C//DTD SVG 1.1//EN" "http://www.w3.org/Graphics/SVG/1.1/DTD/svg11.dtd">
<svg version="1.1" xmlns="http://www.w3.org/2000/svg" xmlns:xlink="http://www.w3.org/1999/xlink" x="0px" y="0px" width="16px"
	 height="16px" viewBox="0 0 16 16" enable-background="new 0 0 16 16" xml:space="preserve">
<g id="Background_xA0_Image_1_">
</g>
<g id="Row_5_1_">
</g>
<g id="Row_4_1_">
</g>
<g id="Row_3_1_">
	<g id="star">
		<g>
			<path fill="#212121" d="M10.995,4.418c-1.99-5.889-3.987-5.891-5.987-0.006c-5.987,0.154-6.606,2.133-1.855,5.937
				c-1.71,5.985-0.097,7.21,4.841,3.674c4.931,3.545,6.547,2.323,4.847-3.665C17.598,6.563,16.982,4.583,10.995,4.418z
				 M10.493,9.648c1.656,4.407,1.244,4.589-2.464,1.713C4.412,14.2,3.963,14.047,5.501,9.612C1.468,6.73,1.723,6.453,6.403,6.453
				c1.563-5.005,1.539-5.001,3.096-0.031C14.161,6.422,14.529,6.709,10.493,9.648z"/>
		</g>
	</g>
</g>
<g id="Row_2_1_">
</g>
<g id="Row_1_1_">
</g>
</svg>
