<?xml version="1.0" ?><!DOCTYPE svg  PUBLIC '-//W3C//DTD SVG 1.1//EN'  'http://www.w3.org/Graphics/SVG/1.1/DTD/svg11.dtd'><svg enable-background="new 0 0 128 128" id="Слой_1" version="1.1" viewBox="0 0 128 128" xml:space="preserve" xmlns="http://www.w3.org/2000/svg" xmlns:xlink="http://www.w3.org/1999/xlink"><g><path d="M106.694,23.471H21.306c-1.823,0-3.306,1.502-3.306,3.35v51.786v0.082v6.413   c0,1.843,1.483,3.343,3.306,3.343h31.71c-0.327,2.721-1.363,11.339-1.694,14.085H47c-0.552,0-1,0.448-1,1s0.448,1,1,1h34   c0.552,0,1-0.448,1-1s-0.448-1-1-1h-4.324c-0.329-2.745-1.341-11.208-1.685-14.085h31.702c1.823,0,3.306-1.5,3.306-3.343v-6.413   v-0.082V26.821C110,24.974,108.517,23.471,106.694,23.471z M53.336,102.529c0.368-3.056,1.386-11.526,1.694-14.085h17.947   c0.364,3.047,1.328,11.106,1.685,14.085H53.336z M108,85.101c0,0.74-0.586,1.343-1.306,1.343H21.306   c-0.72,0-1.306-0.603-1.306-1.343v-5.495h88V85.101z M108,77.606H20V26.821c0-0.744,0.586-1.35,1.306-1.35h85.388   c0.72,0,1.306,0.605,1.306,1.35V77.606z" fill="#323638"/><path d="M92,47c-2.206,0-4,1.794-4,4c0,0.37,0.067,0.722,0.162,1.063l-12.326,7.12C75.111,58.453,74.108,58,73,58   c-0.699,0-1.347,0.196-1.919,0.512L58.396,45.087C58.772,44.477,59,43.767,59,43c0-2.206-1.794-4-4-4s-4,1.794-4,4   c0,0.527,0.108,1.028,0.294,1.489l-12.786,9.421C37.82,53.349,36.954,53,36,53c-2.206,0-4,1.794-4,4s1.794,4,4,4s4-1.794,4-4   c0-0.527-0.108-1.028-0.294-1.489l12.786-9.421C53.18,46.65,54.046,47,55,47c0.712,0,1.372-0.202,1.952-0.53l12.67,13.41   C69.234,60.496,69,61.219,69,62c0,2.206,1.794,4,4,4s4-1.794,4-4c0-0.377-0.069-0.736-0.167-1.082l12.319-7.117   C89.878,54.539,90.885,55,92,55c2.206,0,4-1.794,4-4S94.206,47,92,47z M36,59c-1.103,0-2-0.897-2-2s0.897-2,2-2s2,0.897,2,2   S37.103,59,36,59z M53,43c0-1.103,0.897-2,2-2s2,0.897,2,2s-0.897,2-2,2S53,44.102,53,43z M73,64c-1.103,0-2-0.897-2-2s0.897-2,2-2   s2,0.897,2,2S74.103,64,73,64z M92,53c-1.103,0-2-0.897-2-2s0.897-2,2-2s2,0.897,2,2S93.103,53,92,53z" fill="#323638"/></g></svg>