<?xml version="1.0" encoding="utf-8"?>
<!-- Generator: Adobe Illustrator 16.0.0, SVG Export Plug-In . SVG Version: 6.00 Build 0)  -->
<!DOCTYPE svg PUBLIC "-//W3C//DTD SVG 1.1//EN" "http://www.w3.org/Graphics/SVG/1.1/DTD/svg11.dtd">
<svg version="1.1" xmlns="http://www.w3.org/2000/svg" xmlns:xlink="http://www.w3.org/1999/xlink" x="0px" y="0px" width="16px"
	 height="16px" viewBox="0 0 16 16" enable-background="new 0 0 16 16" xml:space="preserve">
<g id="Background_xA0_Image_1_">
</g>
<g id="Row_5_1_">
	<g id="profile_pic">
		<g>
			<path fill="#212121" d="M8,0C3.582,0,0,3.582,0,8s3.582,8,8,8s8-3.582,8-8S12.418,0,8,0z M9.969,13.641
				C9.344,13.868,8.674,14,7.969,14s-1.375-0.132-2-0.359V13h4V13.641z M11.969,12.425V12c0-0.553-0.447-1-1-1h-6
				c-0.553,0-1,0.447-1,1v0.425c-1.216-1.096-2-2.659-2-4.425c0-3.313,2.687-6,6-6s6,2.687,6,6
				C13.969,9.766,13.185,11.329,11.969,12.425z M7.969,3c-1.657,0-3,1.343-3,3v1c0,1.657,1.343,3,3,3s3-1.343,3-3V6
				C10.969,4.343,9.626,3,7.969,3z M8.969,7c0,0.552-0.447,1-1,1s-1-0.448-1-1V6c0-0.553,0.447-1,1-1s1,0.447,1,1V7z"/>
		</g>
	</g>
</g>
<g id="Row_4_1_">
</g>
<g id="Row_3_1_">
</g>
<g id="Row_2_1_">
</g>
<g id="Row_1_1_">
</g>
</svg>
