<?xml version="1.0" encoding="utf-8"?>
<!-- Generator: Adobe Illustrator 16.0.0, SVG Export Plug-In . SVG Version: 6.00 Build 0)  -->
<!DOCTYPE svg PUBLIC "-//W3C//DTD SVG 1.1//EN" "http://www.w3.org/Graphics/SVG/1.1/DTD/svg11.dtd">
<svg version="1.1" xmlns="http://www.w3.org/2000/svg" xmlns:xlink="http://www.w3.org/1999/xlink" x="0px" y="0px" width="16px"
	 height="16px" viewBox="0 0 16 16" enable-background="new 0 0 16 16" xml:space="preserve">
<g id="Background_xA0_Image_1_">
</g>
<g id="Row_5_1_">
</g>
<g id="Row_4_1_">
	<g id="incoming_notification_2_">
		<g>
			<path fill="#212121" d="M14.084,14.084c-1.657,0-2-2.093-2-3v-4c0-1.861-1.277-3.554-3-4v-2c0-0.553-0.447-1-1-1s-1,0.447-1,1v2
				c-1.723,0.446-3,2.139-3,4v4c0,0.97-0.343,3-2,3c-0.553,0-1,0.447-1,1s0.447,1,1,1h12c0.553,0,1-0.447,1-1
				S14.637,14.084,14.084,14.084z M5.084,14.084c0.136-0.031,1-0.958,1-2v-5c0-1.104,0.896-2,2-2s2,0.896,2,2v5c0,1.042,0.896,2,1,2
				H5.084z M2.084,7.084c0-3.272,1.745-4.255,1.745-4.255C3.982,2.653,4.084,2.43,4.084,2.178c0-0.553-0.447-1-1-1
				c-0.577,0-0.988,0.618-0.738,0.339c-1.397,1.44-2.262,3.401-2.262,5.567c0,0.552,0.447,1,1,1S2.084,7.636,2.084,7.084z
				 M13.822,1.517c0.191,0.213-0.162-0.339-0.738-0.339c-0.553,0-1,0.447-1,1c0,0.252,0.102,0.476,0.255,0.651
				c0,0,1.745,0.982,1.745,4.255c0,0.552,0.447,1,1,1s1-0.448,1-1C16.084,4.918,15.22,2.957,13.822,1.517z"/>
		</g>
	</g>
</g>
<g id="Row_3_1_">
</g>
<g id="Row_2_1_">
</g>
<g id="Row_1_1_">
</g>
</svg>
