<?xml version="1.0" ?><svg enable-background="new 0 0 64 64" height="64px" version="1.1" viewBox="0 0 64 64" width="64px" xml:space="preserve" xmlns="http://www.w3.org/2000/svg" xmlns:xlink="http://www.w3.org/1999/xlink"><g id="Layer_1"><g><circle cx="32" cy="32" fill="#76C2AF" r="32"/></g><g><g><path d="M26.095,36.737c0.562-1.625,1.625-4.312,0.125-9.5s-3.688-7.215-6.688-7.215c0,0-5.153-0.283-5.5,7.903     c-0.384,9.049,2.791,11.271,3.787,16.447l7.525-2.15C25.076,39.985,25.703,37.869,26.095,36.737z" fill="#4F5D73"/></g><g><path d="M26.263,45.079l-8.121,2.32c0.421,5.322,3.011,9.597,7.453,8.397c4.625-1.25,2.511-7.534,0.699-10.659     C26.282,45.118,26.274,45.098,26.263,45.079z" fill="#4F5D73"/></g></g><g><g><path d="M37.905,28.727c-0.562-1.625-1.625-4.312-0.125-9.5s3.688-7.215,6.688-7.215c0,0,5.153-0.283,5.5,7.903     c0.384,9.049-2.791,11.271-3.787,16.447l-7.525-2.15C38.924,31.975,38.297,29.859,37.905,28.727z" fill="#4F5D73"/></g><g><path d="M37.737,37.069l8.121,2.32c-0.421,5.322-3.011,9.597-7.453,8.397c-4.625-1.25-2.511-7.534-0.699-10.659     C37.718,37.108,37.726,37.088,37.737,37.069z" fill="#4F5D73"/></g></g></g><g id="Layer_2"/></svg>