<?xml version="1.0" encoding="utf-8"?>
<!-- Generator: Adobe Illustrator 16.0.0, SVG Export Plug-In . SVG Version: 6.00 Build 0)  -->
<!DOCTYPE svg PUBLIC "-//W3C//DTD SVG 1.1//EN" "http://www.w3.org/Graphics/SVG/1.1/DTD/svg11.dtd">
<svg version="1.1" xmlns="http://www.w3.org/2000/svg" xmlns:xlink="http://www.w3.org/1999/xlink" x="0px" y="0px" width="16px"
	 height="16px" viewBox="0 0 16 16" enable-background="new 0 0 16 16" xml:space="preserve">
<g id="Background_xA0_Image_1_">
</g>
<g id="Row_5_1_">
	<g id="group">
		<g>
			<path fill="#c0c0c0" d="M11.5,7C12.881,7,14,5.824,14,4.375v-1.75C14,1.175,12.881,0,11.5,0S9,1.175,9,2.625v1.75
				C9,5.824,10.119,7,11.5,7z M10.993,3c0-0.553-0.046-1,0.507-1s0.507,0.447,0.507,1v1c0,0.553,0.046,1-0.507,1
				s-0.507-0.447-0.507-1V3z M13,9h-3c-0.553,0-1,0.447-1,1s0.447,1,1,1h3c0.553,0,1,0.447,1,1v1c0,0.552,0.447,1,1,1s1-0.448,1-1
				v-1C16,10.343,14.657,9,13,9z M4.5,9C5.881,9,7,7.824,7,6.375v-1.75C7,3.175,5.881,2,4.5,2S2,3.175,2,4.625v1.75
				C2,7.824,3.119,9,4.5,9z M3.993,5c0-0.553-0.046-1,0.507-1s0.507,0.447,0.507,1v1c0,0.553,0.046,1-0.507,1S3.993,6.553,3.993,6V5
				z M6,11H3c-1.657,0-3,1.343-3,3v1c0,0.552,0.447,1,1,1s1-0.448,1-1v-1c0-0.553,0.447-1,1-1h3c0.553,0,1,0.447,1,1v1
				c0,0.552,0.447,1,1,1s1-0.448,1-1v-1C9,12.343,7.657,11,6,11z"/>
		</g>
	</g>
</g>
<g id="Row_4_1_">
</g>
<g id="Row_3_1_">
</g>
<g id="Row_2_1_">
</g>
<g id="Row_1_1_">
</g>
</svg>
