<?xml version="1.0" ?><svg height="512" id="svg2" version="1.1" width="512" xmlns="http://www.w3.org/2000/svg" xmlns:cc="http://creativecommons.org/ns#" xmlns:dc="http://purl.org/dc/elements/1.1/" xmlns:inkscape="http://www.inkscape.org/namespaces/inkscape" xmlns:rdf="http://www.w3.org/1999/02/22-rdf-syntax-ns#" xmlns:sodipodi="http://sodipodi.sourceforge.net/DTD/sodipodi-0.dtd" xmlns:svg="http://www.w3.org/2000/svg"><defs id="defs4"/><g id="layer1" transform="translate(0,-540.36218)"><path d="M 256 56 C 145.8185 56 56 145.81851 56 256 C 56 366.1815 145.8185 456 256 456 C 366.1815 456 456 366.1815 456 256 C 456 145.81851 366.1815 56 256 56 z M 256 102.5 C 341.04475 102.5 409.46875 170.95526 409.46875 256 C 409.46875 341.04475 341.04475 409.46875 256 409.46875 C 170.95526 409.46875 102.5 341.04475 102.5 256 C 102.5 170.95526 170.95526 102.5 256 102.5 z M 260.15625 153.5625 C 221.0239 152.75621 181.64036 178.99852 171.71875 217.59375 C 161.49899 251.16867 164.33295 289.78254 182.125 320.21875 C 197.56041 344.50404 226.13513 358.59791 254.71875 358.25 C 274.3634 358.97537 294.88448 356.86614 312.71875 348.53125 C 320.91163 340.76311 315.02474 328.46059 317.3125 318.875 C 318.04729 312.62003 312.08488 305.58584 305.5625 308.59375 C 283.21123 314.36387 257.71408 320.28692 236.1875 309.3125 C 217.35751 298.18336 212.41506 274.24136 213.09375 253.90625 C 213.2061 234.10915 220.14382 211.78218 238.8125 202.09375 C 258.31522 192.18486 281.47328 197.22049 300.46875 205.6875 C 309.36019 206.84823 315.89814 198.5879 317.40625 190.71875 C 320.52534 184.00579 323.97167 177.43177 326.75 170.5625 C 306.80727 158.64184 283.38861 153.03885 260.15625 153.5625 z " id="text2985" style="font-size:250px;font-style:normal;font-variant:normal;font-weight:bold;font-stretch:normal;text-align:start;line-height:125%;letter-spacing:0px;word-spacing:0px;writing-mode:lr-tb;text-anchor:start;fill:#222222;fill-opacity:1;stroke:none;font-family:Open Sans;-inkscape-font-specification:Open Sans Bold" transform="translate(0,540.36218)"/></g></svg>