<?xml version="1.0" encoding="utf-8"?>
<!-- Generator: Adobe Illustrator 16.0.0, SVG Export Plug-In . SVG Version: 6.00 Build 0)  -->
<!DOCTYPE svg PUBLIC "-//W3C//DTD SVG 1.1//EN" "http://www.w3.org/Graphics/SVG/1.1/DTD/svg11.dtd">
<svg version="1.1" xmlns="http://www.w3.org/2000/svg" xmlns:xlink="http://www.w3.org/1999/xlink" x="0px" y="0px" width="16px"
	 height="16px" viewBox="0 0 16 16" enable-background="new 0 0 16 16" xml:space="preserve">
<g id="Background_xA0_Image_1_">
</g>
<g id="Row_5_1_">
</g>
<g id="Row_4_1_">
	<g id="reset">
		<g>
			<path fill="#212121" d="M15,2h-5C9.447,2,9,2.447,9,3v5c0,0.552,0.447,1,1,1s1-0.448,1-1V5.027C11.62,5.86,12,6.882,12,8
				c0,2.762-2.238,5-5,5s-5-2.238-5-5s2.238-5,5-5c0.553,0,1-0.448,1-1c0-0.553-0.447-1-1-1C3.134,1,0,4.134,0,8s3.134,7,7,7
				s7-3.134,7-7c0-1.49-0.473-2.865-1.267-4H15c0.553,0,1-0.448,1-1C16,2.447,15.553,2,15,2z"/>
		</g>
	</g>
</g>
<g id="Row_3_1_">
</g>
<g id="Row_2_1_">
</g>
<g id="Row_1_1_">
</g>
</svg>
