<?xml version="1.0" encoding="utf-8"?>
<!-- Generator: Adobe Illustrator 16.0.0, SVG Export Plug-In . SVG Version: 6.00 Build 0)  -->
<!DOCTYPE svg PUBLIC "-//W3C//DTD SVG 1.1//EN" "http://www.w3.org/Graphics/SVG/1.1/DTD/svg11.dtd">
<svg version="1.1" xmlns="http://www.w3.org/2000/svg" xmlns:xlink="http://www.w3.org/1999/xlink" x="0px" y="0px" width="16px"
	 height="16px" viewBox="0 0 16 16" enable-background="new 0 0 16 16" xml:space="preserve">
<g id="Background_xA0_Image_1_">
</g>
<g id="Row_5_1_">
</g>
<g id="Row_4_1_">
</g>
<g id="Row_3_1_">
	<g id="sprocket">
		<g>
			<path fill="#212121" d="M8,7C7.447,7,7,7.447,7,8s0.447,1,1,1s1-0.447,1-1S8.553,7,8,7z M15.063,9.768L13.89,9.091
				C13.955,8.736,14,8.374,14,8s-0.045-0.736-0.11-1.091l1.173-0.677c0.478-0.276,0.642-0.888,0.365-1.366l-1-1.732
				c-0.275-0.479-0.888-0.642-1.365-0.366l-1.188,0.686C11.324,2.984,10.695,2.614,10,2.367V1c0-0.553-0.447-1-1-1H7
				C6.447,0,6,0.447,6,1v1.367C5.305,2.614,4.676,2.984,4.125,3.453L2.938,2.768C2.46,2.492,1.848,2.655,1.572,3.134l-1,1.732
				C0.296,5.345,0.46,5.956,0.938,6.232L2.11,6.909C2.045,7.264,2,7.626,2,8s0.045,0.736,0.11,1.091L0.938,9.768
				c-0.478,0.276-0.642,0.888-0.365,1.366l1,1.732c0.275,0.479,0.888,0.642,1.365,0.366l1.188-0.687
				c0.551,0.47,1.18,0.84,1.875,1.087V15c0,0.553,0.447,1,1,1h2c0.553,0,1-0.447,1-1v-1.367c0.695-0.247,1.324-0.617,1.875-1.087
				l1.188,0.687c0.478,0.275,1.09,0.112,1.365-0.366l1-1.732C15.704,10.655,15.54,10.044,15.063,9.768z M12,8
				c0,0.37-0.066,0.722-0.161,1.062l0.991,0.572l-1,1.732l-0.979-0.565c-0.5,0.509-1.14,0.873-1.852,1.058V13H7v-1.142
				c-0.712-0.185-1.352-0.549-1.852-1.058L4.17,11.366l-1-1.732l0.991-0.572C4.066,8.722,4,8.37,4,8s0.066-0.722,0.161-1.062
				L3.17,6.366l1-1.732l0.979,0.565C5.648,4.69,6.288,4.326,7,4.142V3h2v1.142c0.712,0.185,1.352,0.549,1.852,1.058l0.979-0.565
				l1,1.732l-0.991,0.572C11.934,7.278,12,7.63,12,8z"/>
		</g>
	</g>
</g>
<g id="Row_2_1_">
</g>
<g id="Row_1_1_">
</g>
</svg>
