<?xml version="1.0" ?><svg height="612" id="svg2258" version="1.0" width="612" xmlns="http://www.w3.org/2000/svg" xmlns:cc="http://creativecommons.org/ns#" xmlns:dc="http://purl.org/dc/elements/1.1/" xmlns:inkscape="http://www.inkscape.org/namespaces/inkscape" xmlns:rdf="http://www.w3.org/1999/02/22-rdf-syntax-ns#" xmlns:sodipodi="http://sodipodi.sourceforge.net/DTD/sodipodi-0.dtd" xmlns:svg="http://www.w3.org/2000/svg"><defs id="defs2260"><marker id="ArrowEnd" markerHeight="3" markerUnits="strokeWidth" markerWidth="4" orient="auto" refX="0" refY="5" viewBox="0 0 10 10"><path d="M 0,0 L 10,5 L 0,10 L 0,0 z" id="path2263"/></marker><marker id="ArrowStart" markerHeight="3" markerUnits="strokeWidth" markerWidth="4" orient="auto" refX="10" refY="5" viewBox="0 0 10 10"><path d="M 10,0 L 0,5 L 10,10 L 10,0 z" id="path2266"/></marker></defs><g id="g9213"><g id="g2272"><path d="M 86.7058,430.851 L 166.756,430.851 L 166.756,349.376 L 246.29,349.376 L 246.29,267.351 L 327.079,267.351 L 327.079,186.851 L 407.32,186.851 L 407.32,106.877 L 526.458,106.877 L 526.458,147.681 L 447.256,147.681 L 447.256,227.959 L 366.924,227.959 L 366.924,309.367 L 286.756,309.367 L 286.756,390.351 L 206.256,390.351 L 206.256,472.022 L 86.7058,472.022 L 86.7058,430.851 z" id="path2274" style="fill:#222;stroke:none"/><path d="M 445.549,344.765 L 374.756,344.765 C 355.256,344.765 354.506,374.765 374.756,374.765 L 411.043,374.765 L 342.031,443.777 C 326.732,459.077 348.37,481.215 364.624,464.962 L 432.609,396.789 L 432.609,432.705 C 432.506,452.205 462.756,452.955 462.802,432.705 L 462.802,362.351 C 462.802,351.851 455.756,344.765 445.549,344.765 z" id="path2276" style="fill:#222;stroke:none"/></g></g></svg>