<svg width="32" height="32" viewBox="0 0 32 32" fill="none" xmlns="http://www.w3.org/2000/svg">
<rect width="32" height="32" fill="white"/>
<path fill-rule="evenodd" clip-rule="evenodd" d="M2.41038 15.0859L2.01943 15.4584L2.36434 15.8204C3.20284 16.7004 4.72515 18.0272 6.63 19.2297C8.53132 20.4301 10.8758 21.5461 13.3507 21.9325C14.7479 22.1507 16.2429 21.8194 17.6784 21.2365C19.1253 20.649 20.5975 19.7706 21.9867 18.7864C22.6517 18.3153 23.3033 17.816 23.9302 17.3062C25.328 18.8565 26.4892 20.3975 27.2548 21.5525L27.5311 21.9693L29.1981 20.8642L28.9218 20.4475C28.1132 19.2276 26.906 17.6244 25.453 16.0086C26.8082 14.801 27.9824 13.6126 28.8316 12.6689L29.1661 12.2973L27.6795 10.9594L27.345 11.3311C26.5315 12.2351 25.3924 13.3868 24.0775 14.5554C23.6797 14.1569 23.2689 13.7642 22.8475 13.3832C20.2848 11.0663 17.1327 9 14.0258 9C8.22062 9 3.83116 12.5465 2.32009 14.3598L2 14.7439L2.41038 15.0859Z" fill="black"/>
<path d="M11.558 15.679C11.558 14.647 11.726 13.843 12.062 13.267C12.398 12.685 12.986 12.394 13.826 12.394C14.66 12.394 15.245 12.685 15.581 13.267C15.917 13.843 16.085 14.647 16.085 15.679C16.085 16.729 15.917 17.545 15.581 18.127C15.245 18.709 14.66 19 13.826 19C12.986 19 12.398 18.709 12.062 18.127C11.726 17.545 11.558 16.729 11.558 15.679ZM15.275 15.679C15.275 15.157 15.239 14.716 15.167 14.356C15.101 13.99 14.96 13.696 14.744 13.474C14.534 13.252 14.228 13.141 13.826 13.141C13.418 13.141 13.106 13.252 12.89 13.474C12.68 13.696 12.539 13.99 12.467 14.356C12.401 14.716 12.368 15.157 12.368 15.679C12.368 16.219 12.401 16.672 12.467 17.038C12.539 17.404 12.68 17.698 12.89 17.92C13.106 18.142 13.418 18.253 13.826 18.253C14.228 18.253 14.534 18.142 14.744 17.92C14.96 17.698 15.101 17.404 15.167 17.038C15.239 16.672 15.275 16.219 15.275 15.679Z" fill="#E6E6E6"/>
</svg>
