<svg width="32" height="32" viewBox="0 0 32 32" fill="none" xmlns="http://www.w3.org/2000/svg">
<rect width="32" height="32" fill="white"/>
<path fill-rule="evenodd" clip-rule="evenodd" d="M13.5409 10.3853C14.8941 10.019 15.5231 7.99334 14.9458 5.86098C14.3684 3.72861 12.8034 2.29698 11.4502 2.66335C10.097 3.02972 9.46807 5.05534 10.0454 7.18771C10.6227 9.32008 12.1877 10.7517 13.5409 10.3853ZM8.02098 10.0268C9.92551 11.1462 10.8936 13.0334 10.1832 14.242C9.47287 15.4506 7.35307 15.5229 5.44853 14.4036C3.54399 13.2842 2.57592 11.3969 3.28628 10.1883C3.99664 8.97971 6.11644 8.90738 8.02098 10.0268ZM22.2221 18.2749L22.2223 18.2222C22.2223 14.7858 19.4365 12 16.0001 12C12.5636 12 9.77784 14.7858 9.77784 18.2222L9.77806 18.2749C7.58392 18.9976 6.00006 21.0638 6.00006 23.5C6.00006 26.5375 8.46249 29 11.5001 29C13.3602 29 15.0047 28.0765 16.0001 26.6631C16.9954 28.0765 18.6399 29 20.5001 29C23.5376 29 26.0001 26.5375 26.0001 23.5C26.0001 21.0638 24.4162 18.9976 22.2221 18.2749ZM22.1062 7.44098C21.3834 9.5285 19.7235 10.8489 18.3987 10.3902C17.074 9.93145 16.5861 7.86731 17.3089 5.77978C18.0318 3.69226 19.6917 2.37185 21.0164 2.83058C22.3412 3.28931 22.8291 5.35345 22.1062 7.44098ZM22.1086 13.6891C22.7026 14.9589 24.8063 15.2295 26.8073 14.2934C28.8083 13.3573 29.9489 11.569 29.3549 10.2992C28.7608 9.02936 26.6571 8.75881 24.6561 9.69491C22.6551 10.631 21.5145 12.4193 22.1086 13.6891Z" fill="black"/>
</svg>
