<?xml version="1.0" encoding="utf-8"?>
<!-- Generator: Adobe Illustrator 16.0.0, SVG Export Plug-In . SVG Version: 6.00 Build 0)  -->
<!DOCTYPE svg PUBLIC "-//W3C//DTD SVG 1.1//EN" "http://www.w3.org/Graphics/SVG/1.1/DTD/svg11.dtd">
<svg version="1.1" xmlns="http://www.w3.org/2000/svg" xmlns:xlink="http://www.w3.org/1999/xlink" x="0px" y="0px" width="16px"
	 height="16px" viewBox="0 0 16 16" enable-background="new 0 0 16 16" xml:space="preserve">
<g id="Layer_0_xA0_Image_1_">
</g>
<g id="Row_5_1_">
</g>
<g id="Row_4_1_">
</g>
<g id="Row_3_1_">
</g>
<g id="Row_2_1_">
</g>
<g id="Row_1_1_">
	<g id="book">
		<g>
			<path fill="#FFF" d="M15,0h-5C8.896,0,8,0.896,8,2c0-1.104-0.896-2-2-2H1C0.447,0,0,0.447,0,1v12c0,0.553,0.447,1,1,1h5
				c0.553,0,1,0.447,1,1s0.447,1,1,1s1-0.447,1-1s0.447-1,1-1h5c0.553,0,1-0.447,1-1V1C16,0.447,15.553,0,15,0z M7,12.277
				C6.705,12.105,6.366,12,6,12H2V2h4c0.553,0,1,0.447,1,1V12.277z M14,12h-4c-0.366,0-0.705,0.105-1,0.277V3c0-0.553,0.447-1,1-1h4
				V12z"/>
		</g>
	</g>
</g>
</svg>
