<svg version="1.1" xmlns="http://www.w3.org/2000/svg" xmlns:xlink="http://www.w3.org/1999/xlink" width="32" height="32" viewBox="0 0 32 32">
<path id="Bag" d="M25.599,25.600 C23.840,25.600 22.400,27.040 22.400,28.800 C22.400,30.560 23.840,32.000 25.599,32.000 C27.360,32.000 28.800,30.560 28.800,28.800 C28.800,27.040 27.360,25.600 25.599,25.600 zM-0.000,0.000 L-0.000,3.200 L3.200,3.200 L8.959,15.360 C8.959,15.360 6.719,19.200 6.719,19.200 C6.561,19.680 6.400,20.320 6.400,20.800 C6.400,22.560 7.840,24.000 9.600,24.000 C9.600,24.000 28.800,24.000 28.800,24.000 L28.800,20.800 C28.800,20.800 10.239,20.800 10.239,20.800 C10.080,20.800 9.920,20.640 9.920,20.480 C9.920,20.480 9.920,20.320 9.920,20.320 L11.360,17.600 C11.360,17.600 23.200,17.600 23.200,17.600 C24.480,17.600 25.441,16.960 25.920,16.000 C25.920,16.000 31.680,5.600 31.680,5.600 C32.000,5.280 32.000,5.120 32.000,4.800 C32.000,3.840 31.360,3.200 30.400,3.200 C30.400,3.200 6.719,3.200 6.719,3.200 L5.280,0.000 L-0.000,0.000 zM9.600,25.600 C7.840,25.600 6.400,27.040 6.400,28.800 C6.400,30.560 7.840,32.000 9.600,32.000 C11.360,32.000 12.800,30.560 12.800,28.800 C12.800,27.040 11.360,25.600 9.600,25.600 z" fill="#333333" />
</svg>
