<svg version="1.1" xmlns="http://www.w3.org/2000/svg" xmlns:xlink="http://www.w3.org/1999/xlink" width="32" height="26" viewBox="0 0 32 26">
<path id="Favourites" d="M27.170,0.767 C23.341,-0.999 18.815,0.410 16.698,3.898 C16.697,3.899 16.697,3.899 16.694,3.900 C16.689,3.912 16.684,3.923 16.674,3.933 C16.674,3.937 16.671,3.940 16.669,3.944 C16.524,4.169 16.267,4.319 15.976,4.319 C15.684,4.319 15.427,4.170 15.282,3.944 C15.279,3.940 15.279,3.937 15.276,3.933 C15.268,3.923 15.262,3.912 15.256,3.900 C15.256,3.900 15.256,3.900 15.255,3.898 C13.138,0.410 8.612,-0.999 4.782,0.767 C0.714,2.642 -1.032,7.389 0.886,11.371 C2.398,14.512 10.916,22.279 14.443,25.419 C14.443,25.419 14.446,25.419 14.446,25.419 C14.849,25.778 15.386,26.000 15.976,26.000 C16.562,26.000 17.097,25.780 17.502,25.424 C21.024,22.290 29.551,14.515 31.067,11.371 C32.985,7.389 31.241,2.642 27.170,0.767 z" fill="#333333" />
</svg>
