<?xml version="1.0" ?><svg enable-background="new 0 0 64 64" id="Layer_1_1_" version="1.1" viewBox="0 0 64 64" xml:space="preserve" xmlns="http://www.w3.org/2000/svg" xmlns:xlink="http://www.w3.org/1999/xlink"><g><g><path d="M41,63H23c-3.8,0-7-6.7-7-10V1h32v52C48,56.3,44.8,63,41,63z M18,3v50c0,2.6,2.8,8,5,8h18c2.3,0,5-5.4,5-8    V3H18z" fill="#DFE0E1"/></g><g><rect fill="#DFE0E1" height="2" width="30" x="17" y="52"/></g><g><rect fill="#DFE0E1" height="26" width="2" x="20" y="27"/></g><g><rect fill="#DFE0E1" height="19" width="2" x="20" y="5"/></g><g><rect fill="#DFE0E1" height="6" width="2" x="42" y="5"/></g><g><path d="M44,53h-2V15c-1,0-2.7,0.2-4.6,1c-10.2,4.1-16.9,0.9-17,0.9L21,16l0.4-0.9c0.1,0,6.1,2.6,15.2-1    C40,12.7,43,13,43.1,13l0.9,0.1V53z" fill="#DFE0E1"/></g><g><rect fill="#DFE0E1" height="2" width="2" x="38" y="48"/></g><g><rect fill="#DFE0E1" height="2" width="2" x="34" y="48"/></g><g><rect fill="#DFE0E1" height="2" width="2" x="30" y="48"/></g></g></svg>